<?xml version="1.0" standalone="no"?>
<!DOCTYPE svg PUBLIC "-//W3C//DTD SVG 20010904//EN"
 "http://www.w3.org/TR/2001/REC-SVG-20010904/DTD/svg10.dtd">
<svg version="1.0" xmlns="http://www.w3.org/2000/svg"
 width="1280.000000pt" height="1280.000000pt" viewBox="0 0 1280.000000 1280.000000"
 preserveAspectRatio="xMidYMid meet">
<metadata>
Created by potrace 1.15, written by Peter Selinger 2001-2017
</metadata>
<g transform="translate(0.000000,1280.000000) scale(0.100000,-0.100000)"
fill="#000000" stroke="none">
<path d="M4275 12657 l-96 -143 -87 -12 c-84 -11 -88 -13 -123 -53 l-35 -42
-110 -6 -109 -6 -25 -52 -25 -52 -25 19 c-21 16 -42 20 -120 20 l-96 0 -44 45
c-28 29 -65 53 -99 66 -89 33 -314 99 -338 99 -45 0 -22 -36 95 -147 l118
-111 17 -204 c10 -111 20 -218 23 -235 l5 -33 112 0 113 0 -6 -52 -5 -53 -101
-3 -102 -3 -13 -71 -14 -72 -175 -71 -175 -72 -265 -7 -265 -7 -49 68 c-54 75
-65 111 -66 220 0 71 -12 123 -28 123 -5 0 -39 -26 -78 -58 -60 -51 -104 -82
-116 -82 -2 0 -12 15 -22 34 -22 41 -30 45 -75 38 -25 -3 -36 -12 -44 -32 -10
-27 -11 -27 -130 -34 -66 -3 -168 -6 -227 -6 -74 0 -111 -4 -117 -12 -6 -7
-20 -75 -32 -152 -19 -115 -21 -140 -9 -147 7 -5 46 -9 86 -9 68 0 72 -1 72
-22 0 -48 -9 -51 -139 -46 -146 6 -141 11 -141 -129 l0 -98 67 -78 66 -78 8
-202 c6 -136 16 -244 32 -332 l23 -130 -72 -215 c-40 -118 -80 -236 -89 -262
l-16 -47 -158 6 -157 6 -70 -86 -69 -87 -97 6 -97 6 -45 -71 -46 -71 -79 0
c-92 0 -87 6 -96 -110 -10 -122 -9 -120 -60 -120 -24 0 -47 -5 -50 -10 -4 -6
-11 -101 -17 -213 -5 -111 -14 -206 -19 -212 -6 -5 -38 -8 -73 -7 l-63 4 -6
-99 c-4 -54 -7 -150 -7 -213 l0 -115 65 -47 65 -48 0 -72 0 -73 87 -95 c47
-52 108 -119 135 -147 l50 -53 78 0 c89 0 90 -1 90 -85 0 -77 4 -79 176 -70
l145 7 37 49 c32 43 45 52 97 68 33 10 61 17 63 16 2 -1 6 -108 10 -236 l7
-234 445 0 445 0 3 74 c3 63 5 71 16 56 12 -17 15 -17 62 0 67 25 74 32 74 75
0 41 13 50 76 50 39 0 51 14 60 70 10 59 75 123 118 115 21 -4 48 6 108 40 71
40 87 45 142 45 74 0 152 -28 182 -65 l21 -27 -24 -81 c-20 -72 -23 -95 -17
-187 l6 -105 73 -110 c100 -148 171 -211 358 -313 200 -109 498 -225 827 -321
l265 -77 21 -60 c20 -56 24 -60 73 -78 47 -17 51 -21 51 -51 0 -18 3 -53 6
-79 6 -44 6 -46 -19 -46 -16 0 -43 -16 -73 -43 l-48 -43 53 -87 c48 -79 54
-97 72 -204 11 -64 22 -120 25 -125 3 -4 120 -8 259 -8 l255 0 4 -22 c3 -13 7
-44 10 -71 8 -71 38 -119 110 -177 50 -39 68 -60 75 -88 59 -229 61 -236 93
-262 l32 -27 -27 -65 -26 -66 6 -418 6 -419 -27 -112 -27 -112 27 -53 c15 -29
32 -56 38 -60 6 -4 122 -8 258 -8 217 0 247 -2 242 -15 -12 -29 16 -45 76 -45
l57 0 6 -36 c9 -53 23 -64 80 -64 l50 0 -6 -190 c-6 -168 -5 -192 9 -197 12
-4 147 31 240 64 8 3 13 -82 19 -293 4 -164 11 -308 16 -321 8 -22 14 -23 94
-23 l85 0 -6 -132 c-9 -180 -18 -196 -160 -277 -84 -48 -121 -64 -185 -76 -45
-8 -85 -17 -90 -21 -5 -3 -9 -34 -9 -69 l0 -63 -87 -54 c-80 -49 -93 -62 -174
-172 -83 -113 -87 -123 -99 -195 l-12 -76 -131 -145 c-72 -80 -142 -157 -156
-173 -22 -24 -23 -29 -11 -41 9 -7 73 -21 145 -31 126 -17 133 -19 212 -68 76
-46 84 -54 102 -101 18 -48 23 -54 116 -108 l97 -56 106 -7 c122 -7 190 -29
203 -63 5 -13 9 -42 9 -65 0 -31 12 -63 48 -127 42 -75 51 -85 83 -93 l36 -8
14 -107 15 -107 -33 -23 c-32 -22 -43 -47 -58 -133 -4 -22 -3 -39 4 -43 6 -4
49 -1 97 5 l86 12 44 56 c35 45 56 61 106 82 l63 25 25 105 c14 57 39 130 55
162 29 57 33 59 201 159 160 94 173 104 193 147 13 25 49 96 83 157 50 94 69
119 121 162 61 49 63 52 127 206 l65 156 49 16 c46 15 50 20 78 83 22 50 47
82 103 136 l73 70 7 354 7 354 48 79 c42 70 56 84 121 124 42 26 119 90 176
146 98 97 102 103 121 172 l19 71 81 32 c55 22 130 41 232 57 169 27 207 44
225 96 l12 35 149 8 c82 5 154 13 159 18 6 5 15 24 21 42 l11 32 335 3 336 2
31 35 c16 19 36 53 42 75 13 44 1 38 172 81 83 20 89 24 121 68 33 46 33 47
29 141 -2 53 0 101 6 110 7 9 33 16 82 18 l71 4 19 44 c11 24 23 72 27 107 8
61 12 68 96 171 l88 108 22 107 c17 79 22 128 18 184 -3 59 0 91 18 148 21 70
22 116 3 165 -6 15 -2 16 33 11 35 -5 137 11 162 27 5 3 12 63 15 134 6 105
11 140 31 183 13 31 29 96 36 149 16 126 32 166 88 222 l46 48 4 370 c4 325 2
374 -12 410 -9 23 -14 46 -11 51 4 5 24 9 45 9 66 0 167 63 260 162 78 84 80
87 80 137 0 56 14 77 70 106 24 13 33 27 47 75 15 55 23 65 86 118 42 35 103
102 156 172 l86 114 65 13 c35 7 68 17 73 22 5 5 11 36 14 70 l6 61 41 11 c93
23 88 18 149 138 31 62 57 126 57 142 0 30 21 56 72 91 16 11 37 47 59 105
l34 88 6 375 5 375 -33 46 c-28 40 -35 63 -53 174 -11 70 -22 131 -25 135 -2
4 -124 10 -270 13 l-267 7 -96 67 c-53 37 -149 117 -212 178 -195 188 -309
274 -475 358 -179 91 -364 137 -554 137 -80 0 -130 6 -201 25 -52 14 -105 25
-118 25 -13 0 -141 37 -285 81 l-261 81 -28 -33 c-15 -18 -28 -37 -28 -41 0
-11 -29 -9 -68 5 -23 8 -59 45 -120 121 -85 107 -88 110 -147 126 -35 9 -96
39 -145 71 -152 98 -171 107 -255 118 -69 10 -83 15 -100 39 -11 15 -40 53
-65 86 l-45 58 -230 -1 c-190 -1 -232 -4 -241 -16 -6 -8 -24 -58 -39 -110 -26
-86 -32 -97 -67 -120 l-38 -25 -36 22 -36 23 6 84 6 84 71 95 c56 77 67 98 57
107 -8 8 -83 16 -193 23 -153 10 -182 14 -193 29 -37 52 -39 53 -120 53 l-78
0 -17 88 c-9 49 -17 97 -17 107 0 10 18 48 39 85 26 45 43 92 51 138 l13 70
-64 93 -64 94 -95 8 c-52 5 -96 10 -98 12 -2 2 -46 157 -97 345 -51 188 -96
344 -99 347 -3 3 -27 8 -53 10 l-48 5 -169 -334 c-93 -183 -170 -334 -172
-336 -3 -4 -567 56 -619 66 -29 6 -57 3 -100 -10 -49 -16 -86 -19 -205 -16
l-145 3 -9 -101 -9 -101 -141 -7 c-331 -15 -322 -14 -378 -61 l-50 -43 -126
-7 c-70 -3 -131 -7 -137 -8 -41 -4 -237 17 -240 26 -2 7 -9 31 -15 53 -9 36
-24 53 -98 113 l-88 71 33 352 c18 194 32 374 33 400 0 45 -2 49 -34 62 l-34
14 5 66 c5 60 3 69 -22 106 l-28 40 -73 0 -74 0 -95 -143z"/>
</g>
</svg>
